# uff (Matrix arena) export — box faces + collision tiles
# Coordinates are world units; +Y is up.

o uff_box_faces
g F0_floor_(Y=0)
v -5000 0 -5000
v 5000 0 -5000
v 5000 0 5000
v -5000 0 5000
f 1 2 3
f 1 3 4
g F1_ceiling_(Y=H)
v -5000 3000 -5000
v 5000 3000 -5000
v 5000 3000 5000
v -5000 3000 5000
f 5 6 7
f 5 7 8
g F2_wall_-Z
v -5000 0 -5000
v 5000 0 -5000
v 5000 3000 -5000
v -5000 3000 -5000
f 9 10 11
f 9 11 12
g F3_wall_+X
v 5000 0 -5000
v 5000 0 5000
v 5000 3000 5000
v 5000 3000 -5000
f 13 14 15
f 13 15 16
g F4_wall_+Z
v 5000 0 5000
v -5000 0 5000
v -5000 3000 5000
v 5000 3000 5000
f 17 18 19
f 17 19 20
g F5_wall_-X
v -5000 0 5000
v -5000 0 -5000
v -5000 3000 -5000
v -5000 3000 5000
f 21 22 23
f 21 23 24

o uff_collision_tiles
g tile_0_ROOM_UFF_0001
v -5000 0 -5000
v -5000 0 5000
v 5000 0 5000
v 5000 0 -5000
f 25 26 27 28
